<mxfile host="app.diagrams.net" agent="Mozilla/5.0 (Macintosh; Intel Mac OS X 10_15_7) AppleWebKit/537.36 (KHTML, like Gecko) Chrome/131.0.0.0 Safari/537.36" version="26.1.0">
  <diagram id="R2lEEEUBdFMjLlhIrx00" name="Page-1">
    <mxGraphModel dx="795" dy="418" grid="1" gridSize="10" guides="1" tooltips="1" connect="1" arrows="1" fold="1" page="1" pageScale="1" pageWidth="850" pageHeight="1100" math="0" shadow="0" extFonts="Permanent Marker^https://fonts.googleapis.com/css?family=Permanent+Marker">
      <root>
        <mxCell id="0" />
        <mxCell id="1" parent="0" />
        <mxCell id="AA4Nge7ZwxPGhj5xA22F-4" value="Inspector" style="swimlane;whiteSpace=wrap;html=1;fillColor=#dae8fc;strokeColor=#6c8ebf;" vertex="1" parent="1">
          <mxGeometry x="160" y="50" width="90" height="90" as="geometry" />
        </mxCell>
        <mxCell id="AA4Nge7ZwxPGhj5xA22F-5" value="&lt;u&gt;iid&lt;/u&gt;&lt;div&gt;name&lt;/div&gt;&lt;div&gt;start_date&lt;/div&gt;" style="text;html=1;align=left;verticalAlign=middle;resizable=0;points=[];autosize=1;strokeColor=none;fillColor=none;" vertex="1" parent="AA4Nge7ZwxPGhj5xA22F-4">
          <mxGeometry x="10" y="27" width="80" height="60" as="geometry" />
        </mxCell>
        <mxCell id="AA4Nge7ZwxPGhj5xA22F-6" value="Theater" style="swimlane;whiteSpace=wrap;html=1;fillColor=#dae8fc;strokeColor=#6c8ebf;" vertex="1" parent="1">
          <mxGeometry x="160" y="228" width="90" height="120" as="geometry" />
        </mxCell>
        <mxCell id="AA4Nge7ZwxPGhj5xA22F-7" value="&lt;u&gt;tid&lt;/u&gt;&lt;div&gt;name&lt;/div&gt;&lt;div&gt;address&lt;/div&gt;&lt;div&gt;number&lt;/div&gt;&lt;div&gt;oid&lt;/div&gt;" style="text;html=1;align=left;verticalAlign=middle;resizable=0;points=[];autosize=1;strokeColor=none;fillColor=none;" vertex="1" parent="AA4Nge7ZwxPGhj5xA22F-6">
          <mxGeometry x="10" y="27" width="70" height="90" as="geometry" />
        </mxCell>
        <mxCell id="AA4Nge7ZwxPGhj5xA22F-8" value="Owner" style="swimlane;whiteSpace=wrap;html=1;fillColor=#dae8fc;strokeColor=#6c8ebf;" vertex="1" parent="1">
          <mxGeometry x="340" y="230" width="80" height="90" as="geometry" />
        </mxCell>
        <mxCell id="AA4Nge7ZwxPGhj5xA22F-9" value="&lt;u&gt;oid&lt;/u&gt;&lt;div&gt;name&lt;/div&gt;&lt;div&gt;contact&lt;/div&gt;" style="text;html=1;align=left;verticalAlign=middle;resizable=0;points=[];autosize=1;strokeColor=none;fillColor=none;" vertex="1" parent="AA4Nge7ZwxPGhj5xA22F-8">
          <mxGeometry x="10" y="27" width="60" height="60" as="geometry" />
        </mxCell>
        <mxCell id="AA4Nge7ZwxPGhj5xA22F-10" value="Inspection" style="swimlane;whiteSpace=wrap;html=1;fillColor=#dae8fc;strokeColor=#6c8ebf;" vertex="1" parent="1">
          <mxGeometry x="330" y="54" width="90" height="110" as="geometry" />
        </mxCell>
        <mxCell id="AA4Nge7ZwxPGhj5xA22F-11" value="&lt;u&gt;inid&lt;/u&gt;&lt;div&gt;date&lt;/div&gt;&lt;div&gt;time&lt;/div&gt;&lt;div&gt;iid&lt;/div&gt;&lt;div&gt;tid&lt;/div&gt;" style="text;html=1;align=left;verticalAlign=middle;resizable=0;points=[];autosize=1;strokeColor=none;fillColor=none;" vertex="1" parent="AA4Nge7ZwxPGhj5xA22F-10">
          <mxGeometry x="11" y="20" width="50" height="90" as="geometry" />
        </mxCell>
        <mxCell id="AA4Nge7ZwxPGhj5xA22F-12" value="Violation" style="swimlane;whiteSpace=wrap;html=1;fillColor=#dae8fc;strokeColor=#6c8ebf;" vertex="1" parent="1">
          <mxGeometry x="540" y="160" width="90" height="90" as="geometry" />
        </mxCell>
        <mxCell id="AA4Nge7ZwxPGhj5xA22F-13" value="&lt;u&gt;vcode&lt;/u&gt;&lt;div&gt;desc&lt;/div&gt;&lt;div&gt;penalty&lt;/div&gt;" style="text;html=1;align=left;verticalAlign=middle;resizable=0;points=[];autosize=1;strokeColor=none;fillColor=none;" vertex="1" parent="AA4Nge7ZwxPGhj5xA22F-12">
          <mxGeometry x="10" y="27" width="60" height="60" as="geometry" />
        </mxCell>
        <mxCell id="AA4Nge7ZwxPGhj5xA22F-26" value="" style="endArrow=classic;html=1;rounded=0;entryX=1;entryY=0.5;entryDx=0;entryDy=0;" edge="1" parent="1" target="AA4Nge7ZwxPGhj5xA22F-4">
          <mxGeometry width="50" height="50" relative="1" as="geometry">
            <mxPoint x="330" y="133" as="sourcePoint" />
            <mxPoint x="253" y="133" as="targetPoint" />
            <Array as="points">
              <mxPoint x="290" y="133" />
              <mxPoint x="290" y="95" />
            </Array>
          </mxGeometry>
        </mxCell>
        <mxCell id="AA4Nge7ZwxPGhj5xA22F-27" value="" style="endArrow=classic;html=1;rounded=0;" edge="1" parent="1">
          <mxGeometry width="50" height="50" relative="1" as="geometry">
            <mxPoint x="330" y="150" as="sourcePoint" />
            <mxPoint x="250" y="270" as="targetPoint" />
            <Array as="points">
              <mxPoint x="280" y="150" />
              <mxPoint x="280" y="270" />
            </Array>
          </mxGeometry>
        </mxCell>
        <mxCell id="AA4Nge7ZwxPGhj5xA22F-28" value="" style="endArrow=classic;html=1;rounded=0;entryX=0;entryY=0.5;entryDx=0;entryDy=0;" edge="1" parent="1" target="AA4Nge7ZwxPGhj5xA22F-8">
          <mxGeometry width="50" height="50" relative="1" as="geometry">
            <mxPoint x="250" y="330" as="sourcePoint" />
            <mxPoint x="410" y="170" as="targetPoint" />
            <Array as="points">
              <mxPoint x="320" y="330" />
              <mxPoint x="320" y="275" />
            </Array>
          </mxGeometry>
        </mxCell>
        <mxCell id="AA4Nge7ZwxPGhj5xA22F-29" value="Inspection_Violation" style="swimlane;whiteSpace=wrap;html=1;fillColor=#dae8fc;strokeColor=#6c8ebf;" vertex="1" parent="1">
          <mxGeometry x="490" y="46" width="130" height="76" as="geometry" />
        </mxCell>
        <mxCell id="AA4Nge7ZwxPGhj5xA22F-30" value="&lt;u&gt;inid&lt;/u&gt;&lt;div&gt;&lt;u&gt;vcode&lt;/u&gt;&lt;/div&gt;" style="text;html=1;align=left;verticalAlign=middle;resizable=0;points=[];autosize=1;strokeColor=none;fillColor=none;" vertex="1" parent="AA4Nge7ZwxPGhj5xA22F-29">
          <mxGeometry x="10" y="31" width="60" height="40" as="geometry" />
        </mxCell>
        <mxCell id="AA4Nge7ZwxPGhj5xA22F-31" value="" style="endArrow=classic;html=1;rounded=0;" edge="1" parent="1">
          <mxGeometry width="50" height="50" relative="1" as="geometry">
            <mxPoint x="490" y="90" as="sourcePoint" />
            <mxPoint x="420" y="90" as="targetPoint" />
          </mxGeometry>
        </mxCell>
        <mxCell id="AA4Nge7ZwxPGhj5xA22F-32" value="" style="endArrow=classic;html=1;rounded=0;exitX=0;exitY=0.75;exitDx=0;exitDy=0;entryX=0;entryY=0.5;entryDx=0;entryDy=0;" edge="1" parent="1" source="AA4Nge7ZwxPGhj5xA22F-29" target="AA4Nge7ZwxPGhj5xA22F-12">
          <mxGeometry width="50" height="50" relative="1" as="geometry">
            <mxPoint x="360" y="210" as="sourcePoint" />
            <mxPoint x="410" y="160" as="targetPoint" />
            <Array as="points">
              <mxPoint x="480" y="103" />
              <mxPoint x="480" y="205" />
            </Array>
          </mxGeometry>
        </mxCell>
        <mxCell id="AA4Nge7ZwxPGhj5xA22F-34" value="points_to_rating" style="swimlane;whiteSpace=wrap;html=1;fillColor=#dae8fc;strokeColor=#6c8ebf;" vertex="1" parent="1">
          <mxGeometry x="460" y="280" width="120" height="90" as="geometry" />
        </mxCell>
        <mxCell id="AA4Nge7ZwxPGhj5xA22F-35" value="lower&lt;div&gt;upper&lt;/div&gt;&lt;div&gt;&lt;u&gt;rating&lt;/u&gt;&lt;/div&gt;" style="text;html=1;align=left;verticalAlign=middle;resizable=0;points=[];autosize=1;strokeColor=none;fillColor=none;" vertex="1" parent="AA4Nge7ZwxPGhj5xA22F-34">
          <mxGeometry x="10" y="27" width="50" height="60" as="geometry" />
        </mxCell>
      </root>
    </mxGraphModel>
  </diagram>
</mxfile>
